#usda 1.0
(
    defaultPrim = "OpenCardboardBox"
    metersPerUnit = 1
    upAxis = "Z"
)

def Xform "OpenCardboardBox"
{
    def Mesh "collision" (
        prepend apiSchemas = ["PhysicsCollisionAPI"]
    )
    {
        uniform token subdivisionScheme = "none"
        bool physics:collisionEnabled = 1
        color3f[] primvars:displayColor = [(0.55, 0.32, 0.14)]
        int[] faceVertexCounts = [4, 4, 4, 4, 4, 4, 4, 4, 4, 4, 4, 4, 4, 4]
        int[] faceVertexIndices = [
            0, 3, 2, 1,
            0, 1, 5, 4,
            1, 2, 6, 5,
            2, 3, 7, 6,
            3, 0, 4, 7,
            4, 5, 13, 12,
            5, 6, 14, 13,
            6, 7, 15, 14,
            7, 4, 12, 15,
            8, 9, 10, 11,
            8, 12, 13, 9,
            9, 13, 14, 10,
            10, 14, 15, 11,
            11, 15, 12, 8,
        ]
        point3f[] points = [
            (-0.200, -0.150, 0.000),
            ( 0.200, -0.150, 0.000),
            ( 0.200,  0.150, 0.000),
            (-0.200,  0.150, 0.000),
            (-0.200, -0.150, 0.120),
            ( 0.200, -0.150, 0.120),
            ( 0.200,  0.150, 0.120),
            (-0.200,  0.150, 0.120),
            (-0.196, -0.146, 0.004),
            ( 0.196, -0.146, 0.004),
            ( 0.196,  0.146, 0.004),
            (-0.196,  0.146, 0.004),
            (-0.196, -0.146, 0.120),
            ( 0.196, -0.146, 0.120),
            ( 0.196,  0.146, 0.120),
            (-0.196,  0.146, 0.120),
        ]
    }
}
